grf
version=1
nRows=21
nColumns=19
inDegrees=yes
endheader
time	ground_force_1_vx	ground_force_1_vy	ground_force_1_vz	ground_force_1_px	ground_force_1_py	ground_force_1_pz	ground_moment_1_mx	ground_moment_1_my	ground_moment_1_mz	ground_force_2_vx	ground_force_2_vy	ground_force_2_vz	ground_force_2_px	ground_force_2_py	ground_force_2_pz	ground_moment_2_mx	ground_moment_2_my	ground_moment_2_mz
5.790000	43.057644	1415.118064	-505.225426	0.144480	0.000000	-0.783761	0.000000	9.231340	0.000000	-10.026907	1466.193916	554.510044	0.180720	0.000000	-1.581763	-0.000000	-9.437240	-0.000000
5.791000	43.225250	1415.385413	-505.682347	0.142585	0.000000	-0.782507	0.000000	9.226973	0.000000	-10.520500	1466.688248	554.932509	0.181403	0.000000	-1.582459	-0.000000	-9.400840	-0.000000
5.792000	43.401564	1415.627392	-506.129399	0.142146	0.000000	-0.781952	0.000000	9.223032	0.000000	-10.992320	1467.186041	555.344503	0.181474	0.000000	-1.582691	-0.000000	-9.365335	-0.000000
5.793000	43.585924	1415.847219	-506.566487	0.142829	0.000000	-0.782109	0.000000	9.219331	0.000000	-11.442219	1467.685238	555.746202	0.181109	0.000000	-1.582318	-0.000000	-9.330860	-0.000000
5.794000	43.777634	1416.047365	-506.993670	0.142752	0.000000	-0.782763	0.000000	9.215688	0.000000	-11.870162	1468.184068	556.137738	0.181514	0.000000	-1.581545	-0.000000	-9.297515	-0.000000
5.795000	43.976008	1416.229987	-507.411195	0.142065	0.000000	-0.783159	0.000000	9.211927	0.000000	-12.276182	1468.681518	556.519186	0.181341	0.000000	-1.582737	-0.000000	-9.265366	-0.000000
5.796000	44.180272	1416.397744	-507.819493	0.142597	0.000000	-0.782914	0.000000	9.207890	0.000000	-12.660237	1469.177257	556.890562	0.181008	0.000000	-1.582894	-0.000000	-9.234450	-0.000000
5.797000	44.389487	1416.554219	-508.219144	0.142318	0.000000	-0.782954	0.000000	9.203455	0.000000	-13.022069	1469.670812	557.251854	0.181201	0.000000	-1.582552	-0.000000	-9.204804	-0.000000
5.798000	44.602592	1416.703802	-508.610824	0.141836	0.000000	-0.782433	0.000000	9.198521	0.000000	-13.361248	1470.160901	557.603012	0.181390	0.000000	-1.582050	-0.000000	-9.176463	-0.000000
5.799000	44.818434	1416.851248	-508.995289	0.142001	0.000000	-0.782787	0.000000	9.193000	0.000000	-13.677303	1470.645549	557.943910	0.181289	0.000000	-1.583147	-0.000000	-9.149446	-0.000000
5.800000	45.035786	1417.001345	-509.373348	0.142404	0.000000	-0.782899	0.000000	9.186821	0.000000	-13.969776	1471.122289	558.274293	0.180791	0.000000	-1.582262	-0.000000	-9.123754	-0.000000
5.801000	45.253391	1417.158844	-509.745850	0.140853	0.000000	-0.780756	0.000000	9.179917	0.000000	-14.238241	1471.588019	558.593753	0.181639	0.000000	-1.582360	-0.000000	-9.099381	-0.000000
5.802000	45.469972	1417.328265	-510.113703	0.141649	0.000000	-0.782242	0.000000	9.172225	0.000000	-14.482269	1472.039254	558.901719	0.182025	0.000000	-1.583754	-0.000000	-9.076325	-0.000000
5.803000	45.684178	1417.513634	-510.477909	0.142146	0.000000	-0.781181	0.000000	9.163709	0.000000	-14.701278	1472.472949	559.197462	0.180885	0.000000	-1.582702	0.000000	-9.054552	-0.000000
5.804000	45.894621	1417.718316	-510.839446	0.141462	0.000000	-0.781854	0.000000	9.154346	0.000000	-14.894441	1472.886850	559.480139	0.181302	0.000000	-1.582985	0.000000	-9.033982	-0.000000
5.805000	46.099959	1417.944899	-511.199076	0.141584	0.000000	-0.782374	0.000000	9.144090	0.000000	-15.060755	1473.278979	559.748834	0.180509	0.000000	-1.582405	0.000000	-9.014503	-0.000000
5.806000	46.298870	1418.195229	-511.557297	0.139997	0.000000	-0.782254	0.000000	9.132868	0.000000	-15.199150	1473.647084	560.002625	0.180901	0.000000	-1.582448	0.000000	-8.996012	-0.000000
5.807000	46.489940	1418.470297	-511.914483	0.140771	0.000000	-0.782227	0.000000	9.120641	0.000000	-15.308539	1473.988591	560.240636	0.181045	0.000000	-1.582259	0.000000	-8.978434	-0.000000
5.808000	46.671580	1418.770143	-512.271028	0.141272	0.000000	-0.783486	0.000000	9.107473	0.000000	-15.387827	1474.301042	560.461988	0.181022	0.000000	-1.581301	0.000000	-8.961717	-0.000000
5.809000	46.842054	1419.094346	-512.627404	0.140966	0.000000	-0.783230	0.000000	9.093532	0.000000	-15.435835	1474.582552	560.665761	0.181590	0.000000	-1.583214	0.000000	-8.945812	-0.000000
5.810000	46.999673	1419.442629	-512.984160	0.140794	0.000000	-0.783053	0.000000	9.079036	0.000000	-15.451294	1474.831499	560.851041	0.180639	0.000000	-1.582321	0.000000	-8.930667	-0.000000
